<?xml version="1.0" standalone="no"?><!DOCTYPE svg PUBLIC "-//W3C//DTD SVG 1.1//EN" "http://www.w3.org/Graphics/SVG/1.1/DTD/svg11.dtd"><svg t="1676280601702" class="icon" viewBox="0 0 1024 1024" version="1.1" xmlns="http://www.w3.org/2000/svg" p-id="4555" data-spm-anchor-id="a313x.7781069.0.i11" width="512" height="512" xmlns:xlink="http://www.w3.org/1999/xlink"><path d="M201.216 673.792c0 41.984 33.792 75.776 75.776 75.776s75.776-33.792 75.776-75.776-33.792-75.776-75.776-75.776-75.776 33.792-75.776 75.776z" fill="#8ad2f5" p-id="4556" data-spm-anchor-id="a313x.7781069.0.i0" class=""></path><path d="M276.48 761.856c-48.64 0-88.064-39.424-88.064-88.064s39.424-88.064 88.064-88.064 88.064 39.424 88.064 88.064-39.424 88.064-88.064 88.064z m0-151.04c-34.816 0-62.976 28.16-62.976 62.976s28.16 62.976 62.976 62.976 62.976-28.16 62.976-62.976-28.16-62.976-62.976-62.976z" fill="#40a5e3" p-id="4557" data-spm-anchor-id="a313x.7781069.0.i7" class=""></path><path d="M714.752 673.792c0 41.984 33.792 75.776 75.776 75.776 41.984 0 75.776-33.792 75.776-75.776s-33.792-75.776-75.776-75.776c-41.984 0-75.776 33.792-75.776 75.776z" fill="#8ad2f5" p-id="4558"></path><path d="M790.528 673.792m-88.064 0a88.064 88.064 0 1 0 176.128 0 88.064 88.064 0 1 0-176.128 0Z" fill="#40a5e3" p-id="4559" data-spm-anchor-id="a313x.7781069.0.i8" class=""></path><path d="M790.528 673.792m-62.976 0a62.976 62.976 0 1 0 125.952 0 62.976 62.976 0 1 0-125.952 0Z" fill="#8ad2f5" p-id="4560" data-spm-anchor-id="a313x.7781069.0.i4" class=""></path><path d="M545.28 683.008C506.88 650.24 481.28 599.04 470.016 534.528c-8.192-48.128-5.632-86.016-5.632-87.552l25.088 2.048-12.8-1.024 12.8 1.024c0 1.536-9.728 144.896 72.192 215.04l-16.384 18.944z" fill="#8ad2f5" p-id="4561" data-spm-anchor-id="a313x.7781069.0.i1" class=""></path><path d="M596.992 520.192h-60.416c-6.656 0-12.8-5.632-12.8-12.8s5.632-12.8 12.8-12.8h60.416c6.656 0 12.8 5.632 12.8 12.8s-5.632 12.8-12.8 12.8z" fill="#1296db" p-id="4562" data-spm-anchor-id="a313x.7781069.0.i3" class=""></path><path d="M723.968 462.336c-3.584 0-7.68-1.536-10.24-5.12L599.04 306.176l-0.512-1.024c-4.096-7.68-14.336-10.752-22.016-6.656s-10.752 14.336-6.656 22.016l64 121.344c3.072 6.144 1.024 13.824-5.12 16.896-6.144 3.072-13.824 1.024-16.896-5.12L547.84 332.288c-10.752-20.48-3.072-45.568 17.408-56.32 19.968-10.752 44.544-3.072 55.808 16.384l114.176 149.504c4.096 5.632 3.072 13.312-2.56 17.408-3.072 2.048-5.632 3.072-8.704 3.072zM407.552 460.8c-4.096 0-8.192-2.048-10.752-6.144l-21.504-35.84c-5.632-9.728-7.168-21.504-4.096-32.768 3.072-11.264 10.24-20.48 19.968-26.112 9.728-5.632 21.504-7.168 32.768-4.096 11.264 3.072 20.48 10.24 26.112 19.968l40.96 66.048c3.584 6.144 2.048 13.824-4.096 17.408-6.144 3.584-13.824 2.048-17.408-4.096l-41.472-66.56c-2.56-4.096-6.144-7.168-10.752-8.192-4.608-1.024-9.728-0.512-13.824 1.536-4.096 2.56-7.168 6.144-8.192 10.752s-0.512 9.728 1.536 13.312l20.992 35.328c3.584 6.144 1.536 13.824-4.096 17.408-1.536 1.536-4.096 2.048-6.144 2.048z" fill="#8ad2f5" p-id="4563" data-spm-anchor-id="a313x.7781069.0.i10" class=""></path><path d="M114.176 608.768h-34.816c-16.896 0-32.768-17.408-32.768-27.648V480.768c0-15.36 14.848-27.648 32.768-27.648h31.232c6.656 0 12.8 5.632 12.8 12.8s-5.632 12.8-12.8 12.8h-31.232c-4.608 0-7.168 2.048-7.68 3.072v97.28c1.536 2.56 5.632 5.632 7.68 5.632h34.816c6.656 0 12.8 5.632 12.8 12.8 0 5.632-5.632 11.264-12.8 11.264z" fill="#1296db" p-id="4564" data-spm-anchor-id="a313x.7781069.0.i13" class=""></path><path d="M360.448 660.992H706.56v25.088H360.448v-25.088z m580.096 25.088h-66.56c-6.656 0-12.8-5.632-12.8-12.8s5.632-12.8 12.8-12.8h66.56c6.656 0 11.776-5.632 11.776-11.776 0-111.616-82.432-186.88-204.8-186.88h-20.48c-6.656 0-12.8-5.632-12.8-12.8s5.632-12.8 12.8-12.8h20.48c64 0 122.368 19.968 163.328 56.32 43.52 38.4 66.56 92.16 66.56 155.136 0 22.016-16.384 38.4-36.864 38.4z m-318.464-223.744H218.624c-6.656 0-12.8-5.632-12.8-12.8s5.632-12.8 12.8-12.8h403.456c6.656 0 12.8 5.632 12.8 12.8-0.512 7.168-6.144 12.8-12.8 12.8zM193.024 686.08h-37.888c-29.184 0-53.248-24.064-53.248-53.248V491.008c0-6.656 5.632-12.8 12.8-12.8 6.656 0 12.8 5.632 12.8 12.8v141.824c0 15.36 12.8 28.16 28.16 28.16h37.888c6.656 0 12.8 5.632 12.8 12.8S199.68 686.08 193.024 686.08z" fill="#8ad2f5" p-id="4565" data-spm-anchor-id="a313x.7781069.0.i2" class=""></path><path d="M114.176 497.664c-6.656 0-12.8-5.632-12.8-12.8V430.08c0-13.824 11.264-25.088 25.088-25.088h80.384c13.824 0 25.088 11.264 25.088 25.088v18.944c0 6.656-5.632 12.8-12.8 12.8-6.656 0-12.8-5.632-12.8-12.8V430.08H126.976v54.784c0 7.168-5.632 12.8-12.8 12.8z" fill="#8ad2f5" p-id="4566" data-spm-anchor-id="a313x.7781069.0.i12" class=""></path></svg>